<?xml version="1.0" encoding="utf-8"?>
<!-- Generator: Adobe Illustrator 16.0.4, SVG Export Plug-In . SVG Version: 6.00 Build 0)  -->
<!DOCTYPE svg PUBLIC "-//W3C//DTD SVG 1.1//EN" "http://www.w3.org/Graphics/SVG/1.1/DTD/svg11.dtd">
<svg version="1.1" xmlns="http://www.w3.org/2000/svg" xmlns:xlink="http://www.w3.org/1999/xlink" x="0px" y="0px" width="1024px"
	 height="1024px" viewBox="0 0 1024 1024" enable-background="new 0 0 1024 1024" xml:space="preserve">
<g id="Layer_2">
	<g>
		<g>
			<path fill="#233E97" d="M70.456,811.182c26.602-47.239,55.247-93.913,87.54-137.48c9.32-12.575,19.064-24.96,30.026-36.157
				c4.066-4.154,8.363-8.122,13.063-11.553c3.096-2.26,6.796-4.894,10.814-3.808c3.625,0.979,6.486,6.055,7.875,8.753
				c3.13,6.081,5.454,12.584,7.906,18.956c5.663,14.711,11.55,30.201,22.071,42.216c9.7,11.077,22.603,15.248,36.82,12.073
				c17.759-3.965,34.413-13.739,49.825-23.042c18.294-11.042,35.806-23.348,52.972-36.056c7.498-5.551,14.914-11.21,22.29-16.922
				c2.915-2.257,5.821-4.525,8.725-6.797c1.896-1.484,2.383-2.277,3.919-2.608c0.374-0.081,0.755-0.046,1.124,0.039
				c1.02,0.235-0.242-0.346,0.381,0.186c0.357,0.305,0.636,0.696,0.896,1.083c0.24,0.356,0.701,1.301-0.162-0.388
				c0.193,0.378,0.354,0.773,0.513,1.167c0.277,0.686,0.497,1.394,0.709,2.102c-0.896-2.985-0.011,0.134,0.15,0.849
				c0.221,0.979,0.409,1.964,0.591,2.95c0.378,2.046-0.441-2.684-0.092-0.565c0.127,0.772,0.244,1.547,0.359,2.321
				c1.959,13.135,3.021,26.402,4.695,39.575c4.612,36.286,12.054,73.296,30.362,105.393c8.76,15.358,20.923,30.191,36.145,39.522
				c10.968,6.723,22.994,6.645,34.445,1.126c13.109-6.319,23.685-17.327,32.986-28.255c10.891-12.792,20.395-26.728,29.765-40.648
				c8.122-12.067,15.951-24.429,25.027-35.814c4.216-5.288,11.026-14.976,18.881-12.94c4.113,1.065,7.108,5.389,9.381,8.703
				c3.694,5.388,6.448,11.388,9.102,17.334c6.883,15.431,12.581,31.36,19.449,46.8c5.615,12.623,11.991,27.308,23.009,36.225
				c5.421,4.387,11.08,4.98,17.864,5.412c9.939,0.634,19.933,0.101,29.774-1.381c37.341-5.622,70.066-27.049,97.083-52.491
				c21.801-20.53,40.349-44.184,58.312-68.053c7.154-9.507,14.204-19.104,21.672-28.37c5.361-6.652,10.991-13.501,17.898-18.621
				c1.325-0.982,1.604-4.875,1.774-6.204c0.443-3.438,0.509-6.944,0.3-10.402c-0.072-1.193-0.668-11.643-3.654-9.429
				c-8.312,6.161-14.868,14.718-21.21,22.785c-9.267,11.788-18.062,23.94-27.187,35.838c-21.986,28.667-45.839,56.513-75.208,77.892
				c-30.894,22.487-69.135,35.73-107.608,30.726c-11.752-1.529-19.289-16.193-24.182-25.413
				c-7.833-14.764-13.503-30.688-19.804-46.135c-5.101-12.505-10.156-26.773-19.264-37.022c-6.346-7.142-12.928-6.268-19.642-0.365
				c-9.126,8.023-15.913,19.052-22.677,29.013c-9.274,13.658-18.269,27.506-28.065,40.802
				c-9.364,12.708-19.505,25.227-31.825,35.204c-9.521,7.71-21.31,13.622-33.862,11.632c-15.434-2.445-28.392-17.181-37.4-28.864
				c-11.18-14.502-18.717-31.387-24.345-48.714c-10-30.784-12.042-59.67-16.003-92.047c-1.056-8.633-1.428-20.365-6.768-27.693
				c-1.296-1.779-3.281-2.366-5.157-1.256c-5.966,3.533-11.322,8.668-16.812,12.897c-32.037,24.679-65.584,50.556-103.056,66.429
				c-13.044,5.525-27.593,9.999-40.965,3.144c-13.425-6.883-20.869-22.744-26.433-35.941c-5.297-12.562-8.85-26.826-16.749-38.103
				c-2.218-3.167-5.688-6.238-9.803-5.841c-4.282,0.413-8.738,4.331-11.979,6.88c-10.711,8.421-19.674,19.175-28.193,29.723
				c-11.125,13.774-21.41,28.228-31.393,42.844c-24.467,35.823-47.29,72.951-68.578,110.754c-2.659,4.721-2.39,11.39-2.074,16.606
				C66.826,802.138,68.74,814.229,70.456,811.182L70.456,811.182z"/>
		</g>
	</g>
</g>
<g id="Layer_3">
	<g>
		<g>
			<path fill="#233E97" d="M736.377,215.98c-28.947,20.219-57.119,41.612-85.019,63.24
				c-61.227,47.463-120.775,97.286-176.946,150.666c-30.105,28.61-59.213,58.342-86.332,89.811
				c-24.146,28.02-46.902,57.589-65.377,89.699c-4.617,8.023-8.92,16.238-12.869,24.61c-2.43,5.154-1.767,13.03-1.065,18.471
				c0.24,1.862,1.684,9.891,4.063,4.844c14.943-31.689,35.459-60.636,57.221-87.96c25.412-31.907,53.359-61.766,82.293-90.486
				c56.688-56.27,117.658-108.22,180.291-157.729c33.887-26.786,68.302-53.003,103.595-77.918c0.574-0.405,1.148-0.81,1.724-1.212
				c1.322-0.923,1.611-4.931,1.775-6.204c0.443-3.438,0.509-6.945,0.3-10.402C739.953,224.133,739.419,213.855,736.377,215.98
				L736.377,215.98z"/>
		</g>
	</g>
	<g>
		<g>
			<path fill="#233E97" d="M732.42,218.773c-26.771,21.511-49.936,48.696-70.509,75.977c-46.584,61.77-78.937,133.6-91.117,210.166
				c-8.569,53.865-6.646,109.424,4.272,162.794c0.144,0.706,0.728,3.954,2.1,3.954c1.38,0,1.944-3.247,2.1-3.954
				c1.347-6.121,1.254-12.966,0-19.092c-2.498-12.216-4.419-24.51-5.799-36.902c-1.19-10.685-1.869-23.198-2-32.718
				c-0.298-21.71,1.303-41.513,5.094-64.378c6.491-39.152,20.065-78.149,37.655-114.128c25.289-51.727,60.412-99.335,101.756-139.39
				c5.804-5.622,11.722-11.228,18.026-16.294c1.328-1.067,1.594-4.795,1.775-6.204c0.443-3.438,0.509-6.945,0.3-10.402
				C736.008,227.119,735.321,216.441,732.42,218.773L732.42,218.773z"/>
		</g>
	</g>
</g>
</svg>
